<?xml version="1.0" encoding="UTF-8" standalone="no"?>
<!-- Created with Inkscape (http://www.inkscape.org/) -->

<svg
   xmlns:dc="http://purl.org/dc/elements/1.1/"
   xmlns:cc="http://creativecommons.org/ns#"
   xmlns:rdf="http://www.w3.org/1999/02/22-rdf-syntax-ns#"
   xmlns:svg="http://www.w3.org/2000/svg"
   xmlns="http://www.w3.org/2000/svg"
   version="1.1"
   width="198.439"
   height="25.663313"
   id="svg9612"
   xml:space="preserve"><metadata
     id="metadata9618"><rdf:RDF><cc:Work
         rdf:about=""><dc:format>image/svg+xml</dc:format><dc:type
           rdf:resource="http://purl.org/dc/dcmitype/StillImage" /><dc:title></dc:title></cc:Work></rdf:RDF></metadata><defs
     id="defs9616"><clipPath
       id="clipPath9632"><path
         d="M 0,0 792,0 792,612 0,612 0,0 z"
         id="path9634" /></clipPath><clipPath
       id="clipPath9648"><path
         d="m 349.776,363.728 406.77,0 0,105.195 -406.77,0 0,-105.195 z"
         id="path9650" /></clipPath><clipPath
       id="clipPath9660"><path
         d="m 36,402.574 206.726,0 0,26.735 -206.726,0 0,-26.735 z"
         id="path9662" /></clipPath><clipPath
       id="clipPath9660-8"><path
         d="m 36,402.574 206.726,0 0,26.735 -206.726,0 0,-26.735 z"
         id="path9662-8" /></clipPath></defs><g
     transform="matrix(1.25,0,0,-1.25,-286.52207,603.42554)"
     id="g9620"><g
       transform="matrix(0.76793158,0,0,0.76793158,201.57212,153.06049)"
       id="g9656"><g
         clip-path="url(#clipPath9660-8)"
         id="g9658"><g
           transform="translate(240.7452,410.4134)"
           id="g9664"><path
             d="m 0,0 -0.612,0 0,0.827 0.669,0 C 0.349,0.827 0.663,0.782 0.663,0.428 0.663,0.032 0.311,0 0,0 M 0.696,0.92 C 0.522,1.054 0.319,1.054 0.129,1.054 l -1.04,0 0,-2.371 0.299,0 0,1.09 0.524,0 0.668,-1.09 0.349,0 -0.706,1.09 c 0.41,0.003 0.743,0.179 0.743,0.644 l 0,0.017 c 0,0.191 -0.107,0.393 -0.27,0.486"
             id="path9666"
             style="fill:#003366;fill-opacity:1;fill-rule:nonzero;stroke:none" /></g><g
           transform="translate(240.6207,408.4801)"
           id="g9668"><path
             d="M 0,0 C -0.993,0 -1.795,0.792 -1.795,1.794 -1.795,2.791 -0.993,3.59 0,3.59 0.999,3.59 1.791,2.791 1.791,1.794 1.791,0.792 0.999,0 0,0 m 0,3.901 c -1.166,0 -2.108,-0.935 -2.108,-2.1 0,-1.175 0.942,-2.114 2.108,-2.114 1.163,0 2.105,0.939 2.105,2.114 0,1.165 -0.942,2.1 -2.105,2.1"
             id="path9670"
             style="fill:#003366;fill-opacity:1;fill-rule:nonzero;stroke:none" /></g><g
           transform="translate(148.6388,419.9824)"
           id="g9672"><path
             d="m 0,0 c 0,0.961 0.842,1.743 1.84,1.743 l 6.057,0 C 8.899,1.743 9.736,0.961 9.736,0 l 0,-7.313 c 0,-0.974 -0.824,-1.762 -1.839,-1.762 l -6.057,0 C 0.824,-9.075 0,-8.287 0,-7.313 L 0,0 z m -0.353,-11.61 10.467,0 c 2.425,0 4.857,1.639 4.857,4.773 l 0,6.264 c 0,3.13 -2.461,4.769 -4.886,4.769 l -10.438,0 c -2.424,0 -4.883,-1.639 -4.883,-4.769 l 0,-6.264 c 0,-3.134 2.459,-4.773 4.883,-4.773"
             id="path9674"
             style="fill:#003366;fill-opacity:1;fill-rule:nonzero;stroke:none" /></g><g
           transform="translate(106.5888,424.1759)"
           id="g9676"><path
             d="m 0,0 -14.418,0 0,-15.806 5.014,0 0,13.355 7.646,0 c 0.884,0 1.632,-0.651 1.632,-1.547 l 0,-11.808 5.004,0 0,11.047 C 4.878,-2.132 2.692,0 0,0"
             id="path9678"
             style="fill:#003366;fill-opacity:1;fill-rule:nonzero;stroke:none" /></g><g
           transform="translate(181.4995,424.1759)"
           id="g9680"><path
             d="m 0,0 -14.421,0 0,-15.806 5.016,0 0,13.355 7.646,0 c 0.881,0 1.633,-0.651 1.633,-1.547 l 0,-11.808 5.002,0 0,11.047 C 4.876,-2.132 2.691,0 0,0"
             id="path9682"
             style="fill:#003366;fill-opacity:1;fill-rule:nonzero;stroke:none" /></g><g
           transform="translate(60.0741,423.618)"
           id="g9684"><path
             d="m 0,0 0,-15.25 2.337,0 2.671,0 0,13.097 0,7.844 -2.814,0 L 0,5.691 0,0 z"
             id="path9686"
             style="fill:#003366;fill-opacity:1;fill-rule:nonzero;stroke:none" /></g><g
           transform="translate(134.3694,408.3702)"
           id="g9688"><path
             d="m 0,0 0,11.78 c 0,0.877 0.739,1.575 1.649,1.575 l 5.474,0 0,2.453 -7.257,0 c -2.694,0 -4.882,-2.134 -4.882,-4.761 L -5.016,0 0,0 z"
             id="path9690"
             style="fill:#003366;fill-opacity:1;fill-rule:nonzero;stroke:none" /></g><g
           transform="translate(41.0096,421.7251)"
           id="g9692"><path
             d="m 0,0 8.436,0 c 1.016,0 1.841,-0.795 1.841,-1.772 l 0,-7.281 c 0,-0.972 -0.825,-1.765 -1.841,-1.765 L 0,-10.818 0,0 z m 0,-13.35 10.34,-0.003 c 2.691,0 4.86,2.145 4.86,4.777 l 0,6.26 c 0,2.631 -2.191,4.769 -4.882,4.769 l -15.325,0 -0.003,-21.605 5.01,0 0,5.802 z"
             id="path9694"
             style="fill:#003366;fill-opacity:1;fill-rule:nonzero;stroke:none" /></g><g
           transform="translate(115.255,413.1172)"
           id="g9696"><path
             d="m 0,0 c 0,-2.658 2.138,-4.749 4.856,-4.749 l 6.148,0 0,2.539 -4.528,0 c -0.825,0 -1.463,0.664 -1.463,1.515 l 0,9.303 5.991,0 0,2.453 -5.986,0 L 5.015,16.192 0,16.192 0,0 z"
             id="path9698"
             style="fill:#003366;fill-opacity:1;fill-rule:nonzero;stroke:none" /></g><g
           transform="translate(195.2233,419.3101)"
           id="g9700"><path
             d="m 0,0 0,4.864 -2.333,0 -2.639,0 0,-6.012 0,-9.794 1.634,0 3.338,0 L 0,0 z"
             id="path9702"
             style="fill:#003366;fill-opacity:1;fill-rule:nonzero;stroke:none" /></g><g
           transform="translate(190.251,427.3484)"
           id="g9704"><path
             d="m 0,0 0,-1.155 2.065,0 2.907,0 0,1.011 0,1.39 c 0,0.001 -2.62,0.001 -2.62,0.001 0,0 -2.352,0 -2.352,-0.001 L 0,0 z"
             id="path9706"
             style="fill:#003366;fill-opacity:1;fill-rule:nonzero;stroke:none" /></g><g
           transform="translate(203.8234,413.2422)"
           id="g9708"><path
             d="m 0,0 0,6.063 c 0,2.083 1.123,2.42 2.465,2.42 l 9.198,0 0,2.451 -11.775,0 c -2.692,0 -4.878,-2.137 -4.878,-4.767 l 0,-6.271 c 0,-2.634 2.186,-4.765 4.878,-4.765 l 11.775,0 0,2.534 -9.198,0 C 0.919,-2.335 0,-2.084 0,0"
             id="path9710"
             style="fill:#003366;fill-opacity:1;fill-rule:nonzero;stroke:none" /></g><g
           transform="translate(232.2651,417.6426)"
           id="g9712"><path
             d="m 0,0 -6.568,0 c -1.774,0.005 -2.315,0.804 -2.315,2.046 0,1.346 0.682,2.041 2.315,2.036 l 9.954,0 0,2.451 -12.629,0 c -2.583,0 -4.616,-1.887 -4.695,-4.487 -0.081,-2.56 2.112,-4.478 4.695,-4.478 l 6.946,0 c 0.968,-10e-4 1.933,-0.828 1.921,-2.152 -0.006,-1.311 -0.953,-2.124 -1.921,-2.151 l -11.757,0 0,-2.537 14.046,0 c 2.251,0.048 4.703,1.141 4.703,4.688 C 4.695,-1.627 2.536,-0.044 0,0"
             id="path9714"
             style="fill:#003366;fill-opacity:1;fill-rule:nonzero;stroke:none" /></g><g
           transform="translate(83.3447,416.4859)"
           id="g9716"><path
             d="m 0,0 0,-5.579 -8.14,0 c -0.945,-0.014 -1.63,0.654 -1.63,1.516 l 0,2.467 C -9.77,-0.717 -9.038,0 -8.14,0 L 0,0 z m -9.796,-8.113 14.808,0 0,11.008 c 0,2.643 -2.112,4.797 -4.858,4.797 l -12.823,0 0,-2.453 11.012,0 C -0.411,5.239 0,4.91 0.002,3.973 l 0,-1.487 -9.805,0 c -2.866,0 -4.815,-2.486 -4.874,-4.423 -0.033,-1.046 -0.009,-1.099 0,-1.397 0.107,-4.13 3.773,-4.836 4.881,-4.779"
             id="path9718"
             style="fill:#003366;fill-opacity:1;fill-rule:nonzero;stroke:none" /></g></g></g></g></svg>